{"title":"A Scanner Darkly A.K.A Помутнение (2006) HDRip-AVC AC3 X264","uid":14440181,"size":1550388315,"categoryP":"video","categoryS":"hd___movies","magnet":"?xt=urn:btih:220e2dd3bed31643c0e0ef8217b371405fdfa8d2&amp;dn=A+Scanner+Darkly+A.K.A+%D0%9F%D0%BE%D0%BC%D1%83%D1%82%D0%BD%D0%B5%D0%BD%D0%B8%D0%B5+%282006%29+HDRip-AVC+AC3+X264&amp;tr=udp%3A%2F%2Ftracker.leechers-paradise.org%3A6969&amp;tr=udp%3A%2F%2Fzer0day.ch%3A1337&amp;tr=udp%3A%2F%2Fopen.demonii.com%3A1337&amp;tr=udp%3A%2F%2Ftracker.coppersurfer.tk%3A6969&amp;tr=udp%3A%2F%2Fexodus.desync.com%3A6969","seeders":0,"leechers":0,"uploader":"Horisarte","files":1,"time":1461672185,"description":"http://www.imdb.com/title/tt0405296/\r\n\r\n880x496 (1.77:1), 23.976 fps, ~1672 kbps avg, 0.16 bit/pixel\r\n48 kHz, AC3 Dolby Digital, 2/0 (L,R) ch, ~192 kbps\r\n48 kHz, AC3 Dolby Digital, 2/0 (L,R) ch, ~192 kbps\r\n\r\n HDRip-AVC [BDRip 1080p]\r\n\r\nComplete name : Pomutnenie.mkv\r\nFormat : Matroska\r\nFormat version : Version 4 / Version 2\r\nFile size : 1.44 GiB\r\nDuration : 1h 40mn\r\nOverall bit rate : 2 059 Kbps\r\nEncoded date : UTC 2014-04-10 05:35:36\r\nWriting application : mkvmerge v6.5.0 ('Isn't she lovely') built on Oct 20 2013 12:50:05\r\nWriting library : libebml v1.3.0 + libmatroska v1.4.1\r\n\r\nVideo\r\nID : 1\r\nFormat : AVC\r\nFormat/Info : Advanced Video Codec\r\nFormat profile :   \r\nFormat settings, CABAC : Yes\r\nFormat settings, ReFrames : 10 frames\r\nCodec ID : V_MPEG4/ISO/AVC\r\nDuration : 1h 40mn\r\nBit rate : 1 672 Kbps\r\nWidth : 880 pixels\r\nHeight : 496 pixels\r\nDisplay aspect ratio : 16:9\r\nFrame rate mode : Constant\r\nFrame rate : 23.976 fps\r\nColor space : YUV\r\nChroma subsampling : 4:2:0\r\nBit depth : 8 bits\r\nScan type : Progressive\r\nBits/(Pixel*Frame) : 0.160\r\nStream size : 1.15 GiB (79%)\r\nWriting library : x264 core 130 r2273 b3065e6\r\nEncoding settings : cabac=1 / ref=10 / deblock=1:-1:-1 / analyse=0x3:0x113 / me=umh / subme=10 / psy=1 / psy_rd=1.02:0.20 / mixed_ref=1 / me_range=32 / chroma_me=1 / trellis=2 / 8x8dct=1 / cqm=0 / deadzone=21,11 / fast_pskip=1 / chroma_qp_offset=-3 / threads=6 / lookahead_threads=1 / sliced_threads=0 / nr=0 / decimate=1 / interlaced=0 / bluray_compat=0 / constrained_intra=0 / bframes=12 / b_pyramid=2 / b_adapt=1 / b_bias=0 / direct=1 / weightb=1 / open_gop=0 / weightp=2 / keyint=250 / keyint_min=23 / scenecut=40 / intra_refresh=0 / rc_lookahead=50 / rc=2pass / mbtree=1 / bitrate=1672 / ratetol=1.0 / qcomp=0.60 / qpmin=0 / qpmax=69 / qpstep=4 / cplxblur=20.0 / qblur=0.5 / ip_ratio=1.40 / aq=1:0.90\r\nDefault : Yes\r\nForced : No\r\n\r\nAudio #1\r\nID : 2\r\nFormat : AC-3\r\nFormat/Info : Audio Coding 3\r\nMode extension : CM (complete main)\r\nFormat settings, Endianness : Big\r\nCodec ID : A_AC3\r\nDuration : 1h 40mn\r\nBit rate mode : Constant\r\nBit rate : 192 Kbps\r\nChannel(s) : 2 channels\r\nChannel positions : Front: L R\r\nSampling rate : 48.0 KHz\r\nBit depth : 16 bits\r\nCompression mode : Lossy\r\nStream size : 138 MiB (9%)\r\nLanguage : Russian\r\nDefault : Yes\r\nForced : No\r\n\r\nAudio #2\r\nID : 3\r\nFormat : AC-3\r\nFormat/Info : Audio Coding 3\r\nMode extension : CM (complete main)\r\nFormat settings, Endianness : Big\r\nCodec ID : A_AC3\r\nDuration : 1h 40mn\r\nBit rate mode : Constant\r\nBit rate : 192 Kbps\r\nChannel(s) : 2 channels\r\nChannel positions : Front: L R\r\nSampling rate : 48.0 KHz\r\nBit depth : 16 bits\r\nCompression mode : Lossy\r\nStream size : 138 MiB (9%)\r\nLanguage : English\r\nDefault : No\r\nForced : No\r\n\r\nText #1\r\nID : 4\r\nFormat : UTF-8\r\nCodec ID : S_TEXT/UTF8\r\nCodec ID/Info : UTF-8 Plain Text\r\nTitle : Rus\r\nLanguage : Russian\r\nDefault : No\r\nForced : No\r\n\r\nText #2\r\nID : 5\r\nFormat : UTF-8\r\nCodec ID : S_TEXT/UTF8\r\nCodec ID/Info : UTF-8 Plain Text\r\nTitle : Eng\r\nLanguage : English\r\nDefault : No\r\nForced : No\r\n \nhttp://www.kinopoisk.ru/film/79835/","torrent":{"xt":"urn:btih:220e2dd3bed31643c0e0ef8217b371405fdfa8d2","amp;dn":"A+Scanner+Darkly+A.K.A+%D0%9F%D0%BE%D0%BC%D1%83%D1%82%D0%BD%D0%B5%D0%BD%D0%B8%D0%B5+%282006%29+HDRip-AVC+AC3+X264","amp;tr":["udp%3A%2F%2Ftracker.leechers-paradise.org%3A6969","udp%3A%2F%2Fzer0day.ch%3A1337","udp%3A%2F%2Fopen.demonii.com%3A1337","udp%3A%2F%2Ftracker.coppersurfer.tk%3A6969","udp%3A%2F%2Fexodus.desync.com%3A6969"],"infoHash":"220e2dd3bed31643c0e0ef8217b371405fdfa8d2","infoHashBuffer":{"type":"Buffer","data":[34,14,45,211,190,211,22,67,192,224,239,130,23,179,113,64,95,223,168,210]},"announce":[],"urlList":[]}}